<svg xmlns="http://www.w3.org/2000/svg" xmlns:xlink="http://www.w3.org/1999/xlink" width="512" zoomAndPan="magnify" viewBox="0 0 384 383.999986" height="512" preserveAspectRatio="xMidYMid meet" version="1.0"><defs><clipPath id="id1"><path d="M 16.351562 16.351562 L 369.601562 16.351562 L 369.601562 369.601562 L 16.351562 369.601562 Z M 16.351562 16.351562 " clip-rule="nonzero"/></clipPath></defs><path fill="#66bb6a" d="M 192.976562 139.992188 C 193.558594 139.992188 194.132812 139.933594 194.699219 139.820312 C 195.269531 139.707031 195.820312 139.539062 196.359375 139.320312 C 196.894531 139.097656 197.402344 138.824219 197.882812 138.503906 C 198.367188 138.179688 198.8125 137.8125 199.222656 137.402344 C 199.632812 136.992188 200 136.546875 200.320312 136.066406 C 200.644531 135.582031 200.914062 135.074219 201.136719 134.539062 C 201.359375 134.003906 201.527344 133.449219 201.640625 132.882812 C 201.753906 132.3125 201.808594 131.738281 201.808594 131.160156 C 201.808594 130.578125 201.753906 130.003906 201.640625 129.4375 C 201.527344 128.867188 201.359375 128.316406 201.136719 127.78125 C 200.914062 127.246094 200.644531 126.734375 200.320312 126.253906 C 200 125.769531 199.632812 125.324219 199.222656 124.914062 C 198.8125 124.503906 198.367188 124.140625 197.882812 123.816406 C 197.402344 123.496094 196.894531 123.222656 196.359375 123 C 195.820312 122.777344 195.269531 122.609375 194.699219 122.496094 C 194.132812 122.386719 193.558594 122.328125 192.976562 122.328125 C 191.820312 122.328125 190.667969 122.355469 189.511719 122.414062 C 188.355469 122.46875 187.203125 122.554688 186.054688 122.667969 C 184.902344 122.78125 183.753906 122.921875 182.613281 123.09375 C 181.46875 123.261719 180.328125 123.460938 179.195312 123.6875 C 178.0625 123.910156 176.933594 124.164062 175.8125 124.445312 C 174.691406 124.726562 173.574219 125.035156 172.46875 125.371094 C 171.363281 125.707031 170.265625 126.070312 169.175781 126.457031 C 168.089844 126.847656 167.011719 127.265625 165.941406 127.707031 C 164.875 128.148438 163.816406 128.617188 162.773438 129.113281 C 161.726562 129.605469 160.695312 130.125 159.675781 130.671875 C 158.65625 131.214844 157.648438 131.785156 156.65625 132.378906 C 155.664062 132.972656 154.6875 133.59375 153.726562 134.234375 C 152.765625 134.878906 151.820312 135.542969 150.890625 136.230469 C 149.964844 136.921875 149.050781 137.632812 148.160156 138.363281 C 147.265625 139.097656 146.390625 139.855469 145.53125 140.628906 C 144.675781 141.40625 143.839844 142.203125 143.019531 143.019531 C 142.203125 143.839844 141.40625 144.675781 140.628906 145.53125 C 139.855469 146.390625 139.097656 147.265625 138.363281 148.160156 C 137.632812 149.050781 136.921875 149.964844 136.230469 150.890625 C 135.542969 151.820312 134.878906 152.765625 134.234375 153.726562 C 133.59375 154.6875 132.972656 155.664062 132.378906 156.65625 C 131.785156 157.648438 131.214844 158.65625 130.671875 159.675781 C 130.125 160.695312 129.605469 161.726562 129.113281 162.773438 C 128.617188 163.816406 128.148438 164.875 127.707031 165.941406 C 127.265625 167.011719 126.847656 168.089844 126.457031 169.175781 C 126.070312 170.265625 125.707031 171.363281 125.371094 172.46875 C 125.035156 173.574219 124.726562 174.691406 124.445312 175.8125 C 124.164062 176.933594 123.910156 178.0625 123.6875 179.195312 C 123.460938 180.328125 123.261719 181.46875 123.09375 182.613281 C 122.921875 183.753906 122.78125 184.902344 122.667969 186.054688 C 122.554688 187.203125 122.46875 188.355469 122.414062 189.511719 C 122.355469 190.667969 122.328125 191.820312 122.328125 192.976562 C 122.328125 194.132812 122.355469 195.289062 122.414062 196.445312 C 122.46875 197.601562 122.554688 198.753906 122.667969 199.902344 C 122.78125 201.054688 122.921875 202.199219 123.09375 203.34375 C 123.261719 204.488281 123.460938 205.628906 123.6875 206.761719 C 123.910156 207.894531 124.164062 209.023438 124.445312 210.144531 C 124.726562 211.265625 125.035156 212.378906 125.371094 213.488281 C 125.707031 214.59375 126.070312 215.691406 126.457031 216.78125 C 126.847656 217.867188 127.265625 218.945312 127.707031 220.015625 C 128.148438 221.082031 128.617188 222.140625 129.113281 223.183594 C 129.605469 224.230469 130.125 225.261719 130.671875 226.28125 C 131.214844 227.300781 131.785156 228.308594 132.378906 229.300781 C 132.972656 230.292969 133.59375 231.269531 134.234375 232.230469 C 134.878906 233.191406 135.542969 234.136719 136.230469 235.0625 C 136.921875 235.992188 137.632812 236.90625 138.363281 237.796875 C 139.097656 238.691406 139.855469 239.566406 140.628906 240.425781 C 141.40625 241.28125 142.203125 242.117188 143.019531 242.933594 C 143.839844 243.753906 144.675781 244.550781 145.53125 245.328125 C 146.390625 246.101562 147.265625 246.859375 148.160156 247.589844 C 149.050781 248.324219 149.964844 249.035156 150.890625 249.726562 C 151.820312 250.414062 152.765625 251.078125 153.726562 251.722656 C 154.6875 252.363281 155.664062 252.980469 156.65625 253.578125 C 157.648438 254.171875 158.65625 254.742188 159.675781 255.285156 C 160.695312 255.832031 161.726562 256.351562 162.773438 256.84375 C 163.816406 257.339844 164.875 257.808594 165.941406 258.25 C 167.011719 258.691406 168.089844 259.109375 169.175781 259.5 C 170.265625 259.886719 171.363281 260.25 172.46875 260.585938 C 173.574219 260.921875 174.691406 261.230469 175.8125 261.511719 C 176.933594 261.792969 178.0625 262.046875 179.195312 262.269531 C 180.328125 262.496094 181.46875 262.695312 182.613281 262.863281 C 183.753906 263.035156 184.902344 263.175781 186.054688 263.289062 C 187.203125 263.402344 188.355469 263.488281 189.511719 263.542969 C 190.667969 263.601562 191.820312 263.628906 192.976562 263.628906 C 194.132812 263.628906 195.289062 263.601562 196.445312 263.542969 C 197.601562 263.488281 198.753906 263.402344 199.902344 263.289062 C 201.054688 263.175781 202.199219 263.035156 203.34375 262.863281 C 204.488281 262.695312 205.628906 262.496094 206.761719 262.269531 C 207.894531 262.046875 209.023438 261.792969 210.144531 261.511719 C 211.265625 261.230469 212.378906 260.921875 213.488281 260.585938 C 214.59375 260.25 215.691406 259.886719 216.78125 259.5 C 217.867188 259.109375 218.945312 258.691406 220.015625 258.25 C 221.082031 257.808594 222.140625 257.339844 223.183594 256.84375 C 224.230469 256.351562 225.261719 255.832031 226.28125 255.285156 C 227.300781 254.742188 228.308594 254.171875 229.300781 253.578125 C 230.292969 252.980469 231.269531 252.363281 232.230469 251.722656 C 233.191406 251.078125 234.136719 250.414062 235.0625 249.726562 C 235.992188 249.035156 236.90625 248.324219 237.796875 247.589844 C 238.691406 246.859375 239.566406 246.101562 240.425781 245.328125 C 241.28125 244.550781 242.117188 243.753906 242.933594 242.933594 C 243.753906 242.117188 244.550781 241.28125 245.328125 240.425781 C 246.101562 239.566406 246.859375 238.691406 247.589844 237.796875 C 248.324219 236.90625 249.035156 235.992188 249.726562 235.0625 C 250.414062 234.136719 251.078125 233.191406 251.722656 232.230469 C 252.363281 231.269531 252.980469 230.292969 253.578125 229.300781 C 254.171875 228.308594 254.742188 227.300781 255.285156 226.28125 C 255.832031 225.261719 256.351562 224.230469 256.84375 223.183594 C 257.339844 222.140625 257.808594 221.082031 258.25 220.015625 C 258.691406 218.945312 259.109375 217.867188 259.5 216.78125 C 259.886719 215.691406 260.25 214.59375 260.585938 213.488281 C 260.921875 212.378906 261.230469 211.265625 261.511719 210.144531 C 261.792969 209.023438 262.046875 207.894531 262.269531 206.761719 C 262.496094 205.628906 262.695312 204.488281 262.863281 203.34375 C 263.035156 202.199219 263.175781 201.054688 263.289062 199.902344 C 263.402344 198.753906 263.488281 197.601562 263.542969 196.445312 C 263.601562 195.289062 263.628906 194.132812 263.628906 192.976562 C 263.628906 192.398438 263.570312 191.824219 263.457031 191.253906 C 263.34375 190.6875 263.179688 190.132812 262.957031 189.597656 C 262.734375 189.0625 262.460938 188.554688 262.140625 188.070312 C 261.816406 187.589844 261.453125 187.144531 261.042969 186.734375 C 260.632812 186.324219 260.183594 185.957031 259.703125 185.636719 C 259.222656 185.3125 258.710938 185.042969 258.175781 184.820312 C 257.640625 184.597656 257.089844 184.429688 256.519531 184.316406 C 255.949219 184.203125 255.375 184.148438 254.796875 184.148438 C 254.21875 184.148438 253.644531 184.203125 253.074219 184.316406 C 252.503906 184.429688 251.953125 184.597656 251.417969 184.820312 C 250.882812 185.042969 250.371094 185.3125 249.890625 185.636719 C 249.410156 185.957031 248.960938 186.324219 248.550781 186.734375 C 248.140625 187.144531 247.777344 187.589844 247.453125 188.070312 C 247.132812 188.554688 246.859375 189.0625 246.636719 189.597656 C 246.417969 190.132812 246.25 190.6875 246.136719 191.253906 C 246.023438 191.824219 245.964844 192.398438 245.964844 192.976562 C 245.964844 194.714844 245.878906 196.445312 245.710938 198.171875 C 245.539062 199.898438 245.285156 201.613281 244.949219 203.316406 C 244.609375 205.019531 244.1875 206.699219 243.683594 208.359375 C 243.179688 210.019531 242.597656 211.652344 241.933594 213.253906 C 241.269531 214.859375 240.527344 216.425781 239.710938 217.957031 C 238.890625 219.488281 238 220.972656 237.035156 222.417969 C 236.070312 223.859375 235.039062 225.25 233.9375 226.59375 C 232.835938 227.933594 231.671875 229.21875 230.445312 230.445312 C 229.21875 231.671875 227.933594 232.835938 226.59375 233.9375 C 225.25 235.039062 223.859375 236.070312 222.417969 237.035156 C 220.972656 238 219.488281 238.890625 217.957031 239.710938 C 216.425781 240.527344 214.859375 241.269531 213.253906 241.933594 C 211.652344 242.597656 210.019531 243.179688 208.359375 243.683594 C 206.699219 244.1875 205.019531 244.609375 203.316406 244.949219 C 201.613281 245.285156 199.898438 245.539062 198.171875 245.710938 C 196.445312 245.878906 194.714844 245.964844 192.976562 245.964844 C 191.242188 245.964844 189.511719 245.878906 187.785156 245.710938 C 186.058594 245.539062 184.34375 245.285156 182.640625 244.949219 C 180.9375 244.609375 179.257812 244.1875 177.597656 243.683594 C 175.9375 243.179688 174.304688 242.597656 172.699219 241.933594 C 171.097656 241.269531 169.53125 240.527344 168 239.710938 C 166.46875 238.890625 164.984375 238 163.539062 237.035156 C 162.097656 236.070312 160.703125 235.039062 159.363281 233.9375 C 158.023438 232.835938 156.738281 231.671875 155.511719 230.445312 C 154.285156 229.21875 153.121094 227.933594 152.019531 226.59375 C 150.917969 225.25 149.886719 223.859375 148.921875 222.417969 C 147.957031 220.972656 147.066406 219.488281 146.246094 217.957031 C 145.429688 216.425781 144.6875 214.859375 144.023438 213.253906 C 143.359375 211.652344 142.777344 210.019531 142.273438 208.359375 C 141.769531 206.699219 141.347656 205.019531 141.007812 203.316406 C 140.671875 201.613281 140.417969 199.898438 140.246094 198.171875 C 140.074219 196.445312 139.992188 194.714844 139.992188 192.976562 C 139.992188 191.242188 140.074219 189.511719 140.246094 187.785156 C 140.417969 186.058594 140.671875 184.34375 141.007812 182.640625 C 141.347656 180.9375 141.769531 179.257812 142.273438 177.597656 C 142.777344 175.9375 143.359375 174.304688 144.023438 172.699219 C 144.6875 171.097656 145.429688 169.53125 146.246094 168 C 147.066406 166.46875 147.957031 164.984375 148.921875 163.539062 C 149.886719 162.097656 150.917969 160.703125 152.019531 159.363281 C 153.121094 158.023438 154.285156 156.738281 155.511719 155.511719 C 156.738281 154.285156 158.023438 153.121094 159.363281 152.019531 C 160.703125 150.917969 162.097656 149.886719 163.539062 148.921875 C 164.984375 147.957031 166.46875 147.066406 168 146.246094 C 169.53125 145.429688 171.097656 144.6875 172.699219 144.023438 C 174.304688 143.359375 175.9375 142.777344 177.597656 142.273438 C 179.257812 141.769531 180.9375 141.347656 182.640625 141.007812 C 184.34375 140.671875 186.058594 140.417969 187.785156 140.246094 C 189.511719 140.074219 191.242188 139.992188 192.976562 139.992188 Z M 192.976562 139.992188 " fill-opacity="1" fill-rule="nonzero"/><g clip-path="url(#id1)"><path fill="#66bb6a" d="M 361.496094 140.554688 C 361.339844 139.976562 361.132812 139.425781 360.867188 138.894531 C 360.601562 138.359375 360.285156 137.859375 359.921875 137.390625 C 359.554688 136.921875 359.144531 136.496094 358.691406 136.109375 C 358.242188 135.726562 357.753906 135.386719 357.234375 135.101562 C 356.714844 134.8125 356.167969 134.582031 355.601562 134.402344 C 355.035156 134.226562 354.457031 134.105469 353.863281 134.046875 C 353.273438 133.984375 352.679688 133.984375 352.089844 134.042969 C 351.5 134.101562 350.917969 134.21875 350.351562 134.394531 C 349.78125 134.570312 349.238281 134.800781 348.71875 135.085938 C 348.195312 135.371094 347.707031 135.707031 347.253906 136.089844 C 346.800781 136.476562 346.390625 136.902344 346.023438 137.367188 C 345.65625 137.835938 345.335938 138.335938 345.070312 138.867188 C 344.804688 139.398438 344.59375 139.949219 344.4375 140.523438 C 344.28125 141.097656 344.1875 141.679688 344.148438 142.273438 C 344.109375 142.867188 344.132812 143.457031 344.214844 144.046875 C 344.296875 144.636719 344.4375 145.210938 344.636719 145.769531 C 349.453125 161.136719 351.890625 176.875 351.941406 192.976562 C 351.941406 280.648438 280.648438 351.941406 192.976562 351.941406 C 105.308594 351.941406 34.015625 280.648438 34.015625 192.976562 C 34.015625 105.308594 105.308594 34.015625 192.976562 34.015625 C 209.082031 34.066406 224.820312 36.503906 240.183594 41.320312 C 240.746094 41.519531 241.320312 41.660156 241.910156 41.742188 C 242.5 41.824219 243.089844 41.847656 243.683594 41.808594 C 244.277344 41.769531 244.859375 41.675781 245.433594 41.519531 C 246.007812 41.363281 246.558594 41.152344 247.089844 40.886719 C 247.621094 40.621094 248.121094 40.300781 248.589844 39.933594 C 249.054688 39.566406 249.480469 39.15625 249.867188 38.703125 C 250.25 38.25 250.585938 37.761719 250.871094 37.238281 C 251.15625 36.71875 251.386719 36.171875 251.5625 35.605469 C 251.738281 35.039062 251.855469 34.457031 251.914062 33.867188 C 251.972656 33.273438 251.972656 32.683594 251.910156 32.09375 C 251.851562 31.5 251.730469 30.921875 251.554688 30.355469 C 251.375 29.785156 251.144531 29.242188 250.855469 28.722656 C 250.566406 28.203125 250.230469 27.714844 249.847656 27.265625 C 249.460938 26.8125 249.03125 26.402344 248.566406 26.035156 C 248.097656 25.671875 247.597656 25.355469 247.0625 25.089844 C 246.53125 24.824219 245.976562 24.617188 245.402344 24.460938 C 228.34375 19.085938 210.867188 16.382812 192.976562 16.351562 C 95.59375 16.351562 16.351562 95.59375 16.351562 192.976562 C 16.351562 290.363281 95.59375 369.601562 192.976562 369.601562 C 290.363281 369.601562 369.601562 290.363281 369.601562 192.976562 C 369.574219 175.089844 366.871094 157.613281 361.496094 140.554688 Z M 361.496094 140.554688 " fill-opacity="1" fill-rule="nonzero"/></g><path fill="#66bb6a" d="M 209.757812 79.375 C 210.238281 74.558594 205.824219 70.222656 200.925781 69.824219 C 198.355469 69.582031 195.707031 69.339844 192.976562 69.339844 C 124.816406 69.339844 69.339844 124.816406 69.339844 192.976562 C 69.339844 261.140625 124.816406 316.617188 192.976562 316.617188 C 261.140625 316.617188 316.617188 261.140625 316.617188 192.976562 C 316.617188 189.78125 316.429688 186.597656 316.054688 183.425781 C 313.804688 172.503906 297.347656 173.226562 298.550781 186.554688 C 298.808594 188.6875 298.941406 190.828125 298.953125 192.976562 C 298.953125 194.710938 298.910156 196.445312 298.824219 198.179688 C 298.742188 199.910156 298.613281 201.640625 298.441406 203.367188 C 298.273438 205.089844 298.0625 206.8125 297.804688 208.527344 C 297.550781 210.242188 297.253906 211.953125 296.917969 213.652344 C 296.578125 215.355469 296.199219 217.046875 295.777344 218.726562 C 295.355469 220.410156 294.894531 222.082031 294.390625 223.742188 C 293.886719 225.402344 293.34375 227.046875 292.757812 228.679688 C 292.175781 230.3125 291.550781 231.929688 290.886719 233.53125 C 290.222656 235.136719 289.519531 236.71875 288.777344 238.289062 C 288.035156 239.855469 287.257812 241.40625 286.441406 242.933594 C 285.621094 244.464844 284.769531 245.972656 283.875 247.460938 C 282.984375 248.949219 282.058594 250.414062 281.09375 251.855469 C 280.128906 253.296875 279.132812 254.714844 278.097656 256.109375 C 277.066406 257.5 276 258.867188 274.898438 260.207031 C 273.796875 261.546875 272.664062 262.863281 271.5 264.148438 C 270.335938 265.433594 269.140625 266.6875 267.914062 267.914062 C 266.6875 269.140625 265.433594 270.335938 264.148438 271.5 C 262.863281 272.664062 261.546875 273.796875 260.207031 274.898438 C 258.867188 276 257.5 277.066406 256.109375 278.097656 C 254.714844 279.132812 253.296875 280.128906 251.855469 281.09375 C 250.414062 282.058594 248.949219 282.984375 247.460938 283.875 C 245.972656 284.769531 244.464844 285.621094 242.933594 286.441406 C 241.40625 287.257812 239.855469 288.035156 238.289062 288.777344 C 236.71875 289.519531 235.136719 290.222656 233.53125 290.886719 C 231.929688 291.550781 230.3125 292.175781 228.679688 292.757812 C 227.046875 293.34375 225.402344 293.886719 223.742188 294.390625 C 222.082031 294.894531 220.410156 295.355469 218.726562 295.777344 C 217.046875 296.199219 215.355469 296.578125 213.652344 296.917969 C 211.953125 297.253906 210.242188 297.550781 208.527344 297.804688 C 206.8125 298.0625 205.089844 298.273438 203.367188 298.441406 C 201.640625 298.613281 199.910156 298.742188 198.179688 298.824219 C 196.445312 298.910156 194.710938 298.953125 192.976562 298.953125 C 191.242188 298.953125 189.511719 298.910156 187.777344 298.824219 C 186.046875 298.742188 184.316406 298.613281 182.589844 298.441406 C 180.863281 298.273438 179.144531 298.0625 177.429688 297.804688 C 175.714844 297.550781 174.003906 297.253906 172.304688 296.917969 C 170.601562 296.578125 168.910156 296.199219 167.226562 295.777344 C 165.546875 295.355469 163.875 294.894531 162.214844 294.390625 C 160.554688 293.886719 158.910156 293.34375 157.277344 292.757812 C 155.644531 292.175781 154.027344 291.550781 152.421875 290.886719 C 150.820312 290.222656 149.234375 289.519531 147.667969 288.777344 C 146.101562 288.035156 144.550781 287.257812 143.023438 286.441406 C 141.492188 285.621094 139.984375 284.769531 138.496094 283.875 C 137.007812 282.984375 135.542969 282.058594 134.101562 281.09375 C 132.660156 280.128906 131.242188 279.132812 129.847656 278.097656 C 128.457031 277.066406 127.089844 276 125.75 274.898438 C 124.40625 273.796875 123.09375 272.664062 121.808594 271.5 C 120.523438 270.335938 119.269531 269.140625 118.042969 267.914062 C 116.816406 266.6875 115.621094 265.433594 114.457031 264.148438 C 113.292969 262.863281 112.160156 261.546875 111.058594 260.207031 C 109.957031 258.867188 108.890625 257.5 107.859375 256.109375 C 106.824219 254.714844 105.828125 253.296875 104.863281 251.855469 C 103.898438 250.414062 102.972656 248.949219 102.082031 247.460938 C 101.1875 245.972656 100.335938 244.464844 99.515625 242.933594 C 98.699219 241.40625 97.917969 239.855469 97.179688 238.289062 C 96.4375 236.71875 95.734375 235.136719 95.070312 233.53125 C 94.40625 231.929688 93.78125 230.3125 93.199219 228.679688 C 92.613281 227.046875 92.070312 225.402344 91.566406 223.742188 C 91.0625 222.082031 90.601562 220.410156 90.179688 218.726562 C 89.757812 217.046875 89.378906 215.355469 89.039062 213.652344 C 88.703125 211.953125 88.40625 210.242188 88.148438 208.527344 C 87.894531 206.8125 87.683594 205.089844 87.511719 203.367188 C 87.34375 201.640625 87.214844 199.910156 87.132812 198.179688 C 87.046875 196.445312 87.003906 194.710938 87.003906 192.976562 C 87.003906 191.242188 87.046875 189.511719 87.132812 187.777344 C 87.214844 186.046875 87.34375 184.316406 87.511719 182.589844 C 87.683594 180.863281 87.894531 179.144531 88.148438 177.429688 C 88.40625 175.714844 88.703125 174.003906 89.039062 172.304688 C 89.378906 170.601562 89.757812 168.910156 90.179688 167.226562 C 90.601562 165.546875 91.0625 163.875 91.566406 162.214844 C 92.070312 160.554688 92.613281 158.910156 93.199219 157.277344 C 93.78125 155.644531 94.40625 154.027344 95.070312 152.421875 C 95.734375 150.820312 96.4375 149.234375 97.179688 147.667969 C 97.917969 146.101562 98.699219 144.550781 99.515625 143.023438 C 100.335938 141.492188 101.1875 139.984375 102.082031 138.496094 C 102.972656 137.007812 103.898438 135.542969 104.863281 134.101562 C 105.828125 132.660156 106.824219 131.242188 107.859375 129.847656 C 108.890625 128.457031 109.957031 127.089844 111.058594 125.75 C 112.160156 124.40625 113.292969 123.09375 114.457031 121.808594 C 115.621094 120.523438 116.816406 119.269531 118.042969 118.042969 C 119.269531 116.816406 120.523438 115.621094 121.808594 114.457031 C 123.09375 113.292969 124.40625 112.160156 125.75 111.058594 C 127.089844 109.957031 128.457031 108.890625 129.847656 107.859375 C 131.242188 106.824219 132.660156 105.828125 134.101562 104.863281 C 135.542969 103.898438 137.007812 102.972656 138.496094 102.082031 C 139.984375 101.1875 141.492188 100.335938 143.023438 99.515625 C 144.550781 98.699219 146.101562 97.917969 147.667969 97.179688 C 149.234375 96.4375 150.820312 95.734375 152.421875 95.070312 C 154.027344 94.40625 155.644531 93.78125 157.277344 93.199219 C 158.910156 92.613281 160.554688 92.070312 162.214844 91.566406 C 163.875 91.0625 165.546875 90.601562 167.226562 90.179688 C 168.910156 89.757812 170.601562 89.378906 172.304688 89.039062 C 174.003906 88.703125 175.714844 88.40625 177.429688 88.148438 C 179.144531 87.894531 180.863281 87.683594 182.589844 87.511719 C 184.316406 87.34375 186.046875 87.214844 187.777344 87.132812 C 189.511719 87.046875 191.242188 87.003906 192.976562 87.003906 C 195.125 87.015625 197.269531 87.148438 199.402344 87.40625 L 201.085938 87.40625 C 205.742188 87.804688 209.4375 84.273438 209.757812 79.375 Z M 209.757812 79.375 " fill-opacity="1" fill-rule="nonzero"/><path fill="#66bb6a" d="M 245.964844 95.835938 L 245.964844 127.464844 L 186.714844 186.714844 C 186.304688 187.125 185.933594 187.574219 185.609375 188.054688 C 185.285156 188.539062 185.011719 189.050781 184.789062 189.585938 C 184.566406 190.125 184.398438 190.679688 184.28125 191.25 C 184.167969 191.820312 184.113281 192.394531 184.113281 192.976562 C 184.113281 193.558594 184.167969 194.136719 184.28125 194.707031 C 184.398438 195.277344 184.566406 195.832031 184.789062 196.371094 C 185.011719 196.90625 185.285156 197.417969 185.609375 197.898438 C 185.933594 198.382812 186.304688 198.828125 186.714844 199.242188 C 187.128906 199.648438 187.578125 200.011719 188.0625 200.332031 C 188.546875 200.652344 189.054688 200.921875 189.59375 201.144531 C 190.128906 201.363281 190.683594 201.53125 191.253906 201.644531 C 191.824219 201.753906 192.398438 201.8125 192.976562 201.8125 C 193.558594 201.8125 194.132812 201.753906 194.703125 201.644531 C 195.273438 201.53125 195.824219 201.363281 196.363281 201.144531 C 196.898438 200.921875 197.410156 200.652344 197.894531 200.332031 C 198.378906 200.011719 198.828125 199.648438 199.242188 199.242188 L 258.488281 139.992188 L 290.121094 139.992188 C 291.292969 139.976562 292.417969 139.75 293.5 139.304688 C 294.582031 138.863281 295.542969 138.234375 296.382812 137.421875 L 349.371094 84.433594 C 349.992188 83.816406 350.511719 83.121094 350.925781 82.351562 C 351.339844 81.578125 351.632812 80.761719 351.804688 79.90625 C 351.976562 79.046875 352.019531 78.179688 351.933594 77.308594 C 351.847656 76.4375 351.636719 75.597656 351.300781 74.789062 C 350.964844 73.980469 350.519531 73.234375 349.964844 72.558594 C 349.40625 71.882812 348.761719 71.304688 348.035156 70.816406 C 347.304688 70.332031 346.519531 69.964844 345.683594 69.714844 C 344.84375 69.460938 343.984375 69.335938 343.109375 69.339844 L 316.617188 69.339844 L 316.617188 42.847656 C 316.613281 41.972656 316.484375 41.117188 316.230469 40.277344 C 315.976562 39.441406 315.605469 38.660156 315.117188 37.929688 C 314.632812 37.203125 314.054688 36.558594 313.378906 36.003906 C 312.703125 35.445312 311.964844 34.996094 311.15625 34.65625 C 310.347656 34.339844 309.507812 34.140625 308.640625 34.0625 C 307.769531 33.988281 306.910156 34.035156 306.054688 34.203125 C 305.203125 34.375 304.390625 34.664062 303.617188 35.066406 C 302.847656 35.472656 302.148438 35.980469 301.523438 36.585938 L 248.535156 89.574219 C 247.722656 90.414062 247.09375 91.375 246.648438 92.457031 C 246.207031 93.539062 245.976562 94.664062 245.964844 95.835938 Z M 263.628906 99.527344 L 298.953125 64.203125 L 298.953125 78.171875 C 298.953125 78.75 299.011719 79.328125 299.121094 79.894531 C 299.234375 80.464844 299.402344 81.015625 299.625 81.550781 C 299.847656 82.085938 300.121094 82.597656 300.441406 83.078125 C 300.765625 83.5625 301.128906 84.007812 301.539062 84.417969 C 301.949219 84.828125 302.394531 85.191406 302.878906 85.515625 C 303.359375 85.835938 303.871094 86.109375 304.40625 86.332031 C 304.941406 86.554688 305.492188 86.71875 306.0625 86.832031 C 306.628906 86.945312 307.203125 87.003906 307.785156 87.003906 L 321.753906 87.003906 L 286.429688 122.328125 L 263.628906 122.328125 Z M 263.628906 99.527344 " fill-opacity="1" fill-rule="nonzero"/></svg>