<svg xmlns="http://www.w3.org/2000/svg" xmlns:xlink="http://www.w3.org/1999/xlink" width="512" zoomAndPan="magnify" viewBox="0 0 384 383.999986" height="512" preserveAspectRatio="xMidYMid meet" version="1.0"><defs><clipPath id="id1"><path d="M 9.347656 83 L 40 83 L 40 110 L 9.347656 110 Z M 9.347656 83 " clip-rule="nonzero"/></clipPath><clipPath id="id2"><path d="M 9.347656 117 L 113 117 L 113 247 L 9.347656 247 Z M 9.347656 117 " clip-rule="nonzero"/></clipPath><clipPath id="id3"><path d="M 9.347656 217 L 40 217 L 40 244 L 9.347656 244 Z M 9.347656 217 " clip-rule="nonzero"/></clipPath></defs><path fill="#66bb6a" d="M 226.824219 49.605469 C 227.414062 49.769531 227.980469 49.839844 228.570312 49.839844 C 231.171875 49.839844 233.554688 48.164062 234.359375 45.542969 L 241.375 22.132812 C 242.34375 18.941406 240.523438 15.589844 237.3125 14.621094 C 234.125 13.675781 230.746094 15.46875 229.777344 18.683594 L 222.761719 42.070312 C 221.816406 45.257812 223.636719 48.636719 226.824219 49.605469 " fill-opacity="1" fill-rule="nonzero"/><path fill="#66bb6a" d="M 266.699219 59.265625 C 267.59375 59.761719 268.585938 59.996094 269.554688 59.996094 C 271.707031 59.996094 273.785156 58.863281 274.894531 56.855469 L 286.585938 35.289062 C 288.195312 32.335938 287.105469 28.675781 284.15625 27.070312 C 281.226562 25.484375 277.5625 26.574219 275.957031 29.5 L 264.265625 51.070312 C 262.660156 53.996094 263.746094 57.683594 266.699219 59.265625 " fill-opacity="1" fill-rule="nonzero"/><path fill="#66bb6a" d="M 311.957031 78.988281 C 313.683594 78.988281 315.40625 78.257812 316.585938 76.839844 L 332.484375 57.964844 C 334.65625 55.414062 334.328125 51.589844 331.777344 49.4375 C 329.203125 47.289062 325.398438 47.621094 323.25 50.171875 L 307.351562 69.042969 C 305.203125 71.597656 305.53125 75.421875 308.082031 77.570312 C 309.21875 78.515625 310.585938 78.988281 311.957031 78.988281 " fill-opacity="1" fill-rule="nonzero"/><path fill="#66bb6a" d="M 348.855469 109.035156 C 350.226562 109.035156 351.59375 108.5625 352.730469 107.621094 L 371.460938 91.886719 C 374.011719 89.738281 374.34375 85.933594 372.191406 83.359375 C 370.042969 80.808594 366.238281 80.5 363.6875 82.628906 L 344.957031 98.359375 C 342.40625 100.507812 342.074219 104.335938 344.226562 106.886719 C 345.40625 108.304688 347.128906 109.035156 348.855469 109.035156 " fill-opacity="1" fill-rule="nonzero"/><path fill="#66bb6a" d="M 66.148438 76.839844 C 67.328125 78.257812 69.054688 78.988281 70.777344 78.988281 C 72.148438 78.988281 73.519531 78.515625 74.652344 77.570312 C 77.203125 75.421875 77.535156 71.597656 75.386719 69.042969 L 59.488281 50.171875 C 57.335938 47.621094 53.511719 47.289062 50.960938 49.4375 C 48.410156 51.589844 48.078125 55.414062 50.25 57.964844 L 66.148438 76.839844 " fill-opacity="1" fill-rule="nonzero"/><path fill="#66bb6a" d="M 107.839844 56.855469 C 108.953125 58.863281 111.03125 59.996094 113.179688 59.996094 C 114.148438 59.996094 115.140625 59.761719 116.039062 59.265625 C 118.992188 57.683594 120.078125 53.996094 118.472656 51.070312 L 106.777344 29.5 C 105.171875 26.574219 101.511719 25.484375 98.582031 27.070312 C 95.628906 28.675781 94.542969 32.335938 96.148438 35.289062 L 107.839844 56.855469 " fill-opacity="1" fill-rule="nonzero"/><g clip-path="url(#id1)"><path fill="#66bb6a" d="M 30.195312 107.785156 C 31.28125 108.636719 32.582031 109.035156 33.882812 109.035156 C 35.699219 109.035156 37.472656 108.234375 38.675781 106.699219 C 40.707031 104.050781 40.234375 100.25 37.589844 98.195312 L 19.707031 84.398438 C 17.0625 82.34375 13.257812 82.839844 11.203125 85.484375 C 9.171875 88.132812 9.667969 91.910156 12.289062 93.941406 L 30.195312 107.785156 " fill-opacity="1" fill-rule="nonzero"/></g><path fill="#66bb6a" d="M 148.375 45.542969 C 149.179688 48.164062 151.566406 49.839844 154.164062 49.839844 C 154.753906 49.839844 155.320312 49.769531 155.910156 49.605469 C 159.101562 48.636719 160.917969 45.257812 159.972656 42.070312 L 152.957031 18.683594 C 151.992188 15.46875 148.636719 13.675781 145.421875 14.621094 C 142.210938 15.589844 140.390625 18.941406 141.359375 22.132812 L 148.375 45.542969 " fill-opacity="1" fill-rule="nonzero"/><path fill="#66bb6a" d="M 191.367188 46.839844 C 194.699219 46.839844 197.414062 44.125 197.414062 40.792969 L 197.414062 16.605469 C 197.414062 13.273438 194.699219 10.558594 191.367188 10.558594 C 188.039062 10.558594 185.320312 13.273438 185.320312 16.605469 L 185.320312 40.792969 C 185.320312 44.125 188.039062 46.839844 191.367188 46.839844 " fill-opacity="1" fill-rule="nonzero"/><g clip-path="url(#id2)"><path fill="#66bb6a" d="M 109.164062 234.679688 C 76.824219 220.246094 47.34375 197.167969 23.699219 167.785156 C 35.535156 153.042969 48.808594 139.910156 63.148438 128.640625 C 65.792969 126.5625 66.242188 122.761719 64.1875 120.140625 C 62.109375 117.492188 58.328125 117.042969 55.683594 119.121094 C 39.363281 131.925781 24.386719 147.066406 11.226562 164.074219 C 9.527344 166.25 9.527344 169.320312 11.226562 171.492188 C 36.550781 204.230469 68.722656 229.910156 104.25 245.734375 C 105.054688 246.089844 105.878906 246.253906 106.707031 246.253906 C 109.023438 246.253906 111.21875 244.933594 112.234375 242.664062 C 113.582031 239.617188 112.210938 236.050781 109.164062 234.679688 " fill-opacity="1" fill-rule="nonzero"/></g><path fill="#66bb6a" d="M 175.824219 200.523438 C 163.234375 194.523438 155.085938 181.671875 155.085938 167.785156 C 155.085938 147.777344 171.359375 131.5 191.367188 131.5 C 192.429688 131.5 193.46875 131.546875 194.535156 131.640625 C 192.476562 135.210938 191.367188 139.296875 191.367188 143.59375 C 191.367188 156.941406 202.210938 167.785156 215.554688 167.785156 C 219.832031 167.785156 223.941406 166.671875 227.507812 164.617188 C 227.605469 165.679688 227.652344 166.722656 227.652344 167.785156 C 227.652344 181.671875 219.5 194.523438 206.910156 200.523438 C 204.808594 201.539062 203.460938 203.640625 203.460938 205.980469 L 203.460938 252.445312 L 179.273438 252.445312 L 179.273438 205.980469 C 179.273438 203.640625 177.925781 201.539062 175.824219 200.523438 Z M 257.886719 270.585938 C 257.886719 273.917969 255.171875 276.632812 251.839844 276.632812 L 130.894531 276.632812 C 127.566406 276.632812 124.847656 273.917969 124.847656 270.585938 C 124.847656 267.253906 127.566406 264.539062 130.894531 264.539062 L 251.839844 264.539062 C 255.171875 264.539062 257.886719 267.253906 257.886719 270.585938 Z M 191.367188 361.292969 C 164.699219 361.292969 142.992188 339.585938 142.992188 312.917969 L 239.746094 312.917969 C 239.746094 339.585938 218.035156 361.292969 191.367188 361.292969 Z M 371.507812 171.492188 C 373.207031 169.320312 373.207031 166.25 371.507812 164.074219 C 325.730469 104.949219 260.058594 71.027344 191.367188 71.027344 C 150.480469 71.027344 110.085938 83.027344 74.535156 105.730469 C 71.722656 107.523438 70.898438 111.28125 72.691406 114.089844 C 74.488281 116.902344 78.242188 117.730469 81.054688 115.933594 C 96.597656 105.988281 113.15625 98.335938 130.257812 92.855469 C 108.527344 110.59375 94.613281 137.59375 94.613281 167.785156 C 94.613281 197.382812 107.792969 224.6875 130.894531 243.183594 L 130.894531 252.445312 C 120.878906 252.445312 112.753906 260.570312 112.753906 270.585938 C 112.753906 280.601562 120.878906 288.726562 130.894531 288.726562 L 251.839844 288.726562 C 255.171875 288.726562 257.886719 291.445312 257.886719 294.773438 C 257.886719 298.105469 255.171875 300.820312 251.839844 300.820312 L 130.894531 300.820312 C 127.566406 300.820312 124.847656 303.539062 124.847656 306.871094 C 124.847656 310.199219 127.566406 312.917969 130.894531 312.917969 C 130.894531 346.246094 158.015625 373.386719 191.367188 373.386719 C 224.722656 373.386719 251.839844 346.246094 251.839844 312.917969 C 261.855469 312.917969 269.980469 304.789062 269.980469 294.773438 C 269.980469 290.097656 268.164062 285.894531 265.257812 282.679688 C 268.164062 279.46875 269.980469 275.261719 269.980469 270.585938 C 269.980469 260.570312 261.855469 252.445312 251.839844 252.445312 L 251.839844 243.183594 C 274.941406 224.6875 288.121094 197.382812 288.121094 167.785156 C 288.121094 160.957031 287.367188 154.011719 285.855469 147.136719 C 285.148438 143.855469 281.933594 141.777344 278.675781 142.507812 C 275.414062 143.21875 273.335938 146.429688 274.042969 149.714844 C 275.367188 155.738281 276.027344 161.832031 276.027344 167.785156 C 276.027344 194.546875 263.675781 219.207031 242.15625 235.390625 C 240.644531 236.523438 239.746094 238.320312 239.746094 240.230469 L 239.746094 252.445312 L 215.554688 252.445312 L 215.554688 209.617188 C 230.367188 201.042969 239.746094 185.003906 239.746094 167.785156 C 239.746094 162.066406 238.707031 156.375 236.652344 150.894531 C 235.847656 148.722656 233.886719 147.210938 231.570312 146.996094 C 229.234375 146.761719 227.035156 147.894531 225.832031 149.855469 C 223.613281 153.515625 219.761719 155.691406 215.554688 155.691406 C 208.894531 155.691406 203.460938 150.257812 203.460938 143.59375 C 203.460938 139.390625 205.636719 135.539062 209.296875 133.320312 C 211.257812 132.113281 212.367188 129.871094 212.15625 127.578125 C 211.941406 125.265625 210.429688 123.304688 208.257812 122.5 C 202.777344 120.445312 197.085938 119.40625 191.367188 119.40625 C 164.699219 119.40625 142.992188 141.113281 142.992188 167.785156 C 142.992188 185.003906 152.367188 201.042969 167.179688 209.617188 L 167.179688 252.445312 L 142.992188 252.445312 L 142.992188 240.230469 C 142.992188 238.320312 142.09375 236.523438 140.582031 235.390625 C 119.0625 219.207031 106.707031 194.546875 106.707031 167.785156 C 106.707031 121.105469 144.691406 83.125 191.367188 83.125 C 222.902344 83.125 251.628906 100.507812 266.320312 128.5 C 267.878906 131.453125 271.539062 132.585938 274.492188 131.027344 C 277.445312 129.46875 278.578125 125.832031 277.019531 122.878906 C 270.855469 111.113281 262.492188 101.003906 252.621094 92.902344 C 292.964844 105.941406 329.957031 131.640625 359.035156 167.785156 C 335.390625 197.167969 305.910156 220.246094 273.570312 234.679688 C 270.523438 236.050781 269.15625 239.617188 270.5 242.664062 C 271.515625 244.933594 273.714844 246.253906 276.027344 246.253906 C 276.855469 246.253906 277.683594 246.089844 278.484375 245.734375 C 314.011719 229.910156 346.160156 204.230469 371.507812 171.492188 " fill-opacity="1" fill-rule="nonzero"/><path fill="#66bb6a" d="M 316.585938 250.058594 C 314.4375 247.507812 310.609375 247.199219 308.082031 249.351562 C 305.53125 251.5 305.203125 255.304688 307.351562 257.878906 L 323.25 276.75 C 324.453125 278.167969 326.152344 278.902344 327.878906 278.902344 C 329.25 278.902344 330.640625 278.429688 331.777344 277.484375 C 334.328125 275.308594 334.65625 271.507812 332.484375 268.957031 L 316.585938 250.058594 " fill-opacity="1" fill-rule="nonzero"/><path fill="#66bb6a" d="M 352.730469 219.304688 C 350.175781 217.152344 346.375 217.484375 344.226562 220.035156 C 342.074219 222.609375 342.40625 226.414062 344.957031 228.5625 L 363.6875 244.296875 C 364.824219 245.238281 366.191406 245.710938 367.5625 245.710938 C 369.289062 245.710938 371.011719 244.980469 372.191406 243.539062 C 374.34375 240.988281 374.011719 237.160156 371.460938 235.011719 L 352.730469 219.304688 " fill-opacity="1" fill-rule="nonzero"/><path fill="#66bb6a" d="M 66.148438 250.058594 L 50.25 268.957031 C 48.078125 271.507812 48.410156 275.308594 50.960938 277.484375 C 52.09375 278.429688 53.488281 278.902344 54.859375 278.902344 C 56.582031 278.902344 58.28125 278.167969 59.488281 276.75 L 75.386719 257.878906 C 77.535156 255.304688 77.203125 251.5 74.652344 249.351562 C 72.125 247.199219 68.296875 247.53125 66.148438 250.058594 " fill-opacity="1" fill-rule="nonzero"/><g clip-path="url(#id3)"><path fill="#66bb6a" d="M 30.195312 219.136719 L 12.289062 232.957031 C 9.667969 234.988281 9.171875 238.792969 11.203125 241.4375 C 12.410156 242.972656 14.203125 243.800781 16 243.800781 C 17.296875 243.800781 18.597656 243.375 19.707031 242.523438 L 37.589844 228.726562 C 40.234375 226.671875 40.707031 222.871094 38.675781 220.222656 C 36.621094 217.578125 32.816406 217.105469 30.195312 219.136719 " fill-opacity="1" fill-rule="nonzero"/></g></svg>