<svg xmlns="http://www.w3.org/2000/svg" xmlns:xlink="http://www.w3.org/1999/xlink" width="512" zoomAndPan="magnify" viewBox="0 0 384 383.999986" height="512" preserveAspectRatio="xMidYMid meet" version="1.0"><defs><clipPath id="id1"><path d="M 4 25 L 380 25 L 380 363.746094 L 4 363.746094 Z M 4 25 " clip-rule="nonzero"/></clipPath></defs><g clip-path="url(#id1)"><path fill="#66bb6a" d="M 121.667969 126.269531 C 121.789062 126.417969 121.921875 126.566406 122.0625 126.707031 L 187.871094 192.484375 C 188.871094 193.488281 190.15625 194.054688 191.476562 194.175781 C 191.671875 194.195312 191.867188 194.203125 192.0625 194.203125 C 192.128906 194.203125 192.195312 194.203125 192.257812 194.203125 C 193.746094 194.152344 195.164062 193.535156 196.214844 192.484375 L 262.019531 126.707031 C 262.15625 126.566406 262.289062 126.425781 262.410156 126.277344 L 273.988281 114.703125 C 294.417969 94.28125 294.417969 61.054688 273.988281 40.632812 C 253.558594 20.214844 220.320312 20.210938 199.886719 40.632812 L 192.042969 48.476562 L 184.195312 40.632812 C 163.765625 20.210938 130.523438 20.210938 110.09375 40.632812 C 89.667969 61.054688 89.667969 94.28125 110.09375 114.699219 Z M 118.375 48.910156 C 126.058594 41.226562 136.277344 36.996094 147.144531 36.996094 C 158.011719 36.996094 168.230469 41.226562 175.914062 48.910156 L 187.902344 60.890625 C 189 61.988281 190.488281 62.605469 192.042969 62.605469 C 193.59375 62.605469 195.082031 61.988281 196.183594 60.890625 L 208.167969 48.910156 C 215.855469 41.226562 226.070312 36.996094 236.9375 36.996094 C 247.804688 36.996094 258.023438 41.226562 265.707031 48.910156 C 281.570312 64.765625 281.570312 90.566406 265.707031 106.425781 L 253.722656 118.40625 C 253.582031 118.546875 253.453125 118.691406 253.328125 118.839844 L 192.042969 180.101562 L 130.757812 118.84375 C 130.636719 118.691406 130.503906 118.546875 130.363281 118.40625 L 118.378906 106.425781 C 102.511719 90.566406 102.511719 64.765625 118.375 48.910156 Z M 377.765625 184.878906 C 367.21875 174.335938 351.339844 170.996094 337.511719 176.179688 C 333.285156 174.589844 328.761719 173.753906 324.109375 173.753906 C 314.042969 173.753906 304.574219 177.640625 297.414062 184.703125 L 253.847656 221.589844 C 253.867188 221.121094 253.882812 220.65625 253.882812 220.183594 C 253.882812 216.953125 251.265625 214.332031 248.03125 214.332031 L 113.546875 214.332031 C 94.324219 214.332031 76.25 221.816406 62.65625 235.402344 L 6.316406 291.71875 C 4.03125 294.007812 4.03125 297.710938 6.316406 299.996094 C 7.460938 301.140625 8.957031 301.710938 10.457031 301.710938 C 11.953125 301.710938 13.453125 301.140625 14.597656 299.996094 L 70.9375 243.679688 C 82.320312 232.300781 97.453125 226.035156 113.546875 226.035156 L 241.476562 226.035156 C 238.832031 236.992188 228.953125 245.15625 217.195312 245.15625 L 145.589844 245.15625 C 142.355469 245.15625 139.738281 247.773438 139.738281 251.007812 C 139.738281 254.242188 142.355469 256.859375 145.589844 256.859375 L 217.195312 256.859375 C 227.566406 256.859375 236.9375 252.527344 243.617188 245.589844 L 305.160156 193.484375 C 305.285156 193.378906 305.402344 193.269531 305.515625 193.15625 C 314.347656 184.328125 327.945312 183.105469 338.101562 189.480469 L 244.917969 282.625 C 236.253906 291.285156 224.738281 296.054688 212.492188 296.054688 L 120.648438 296.054688 C 109.960938 296.054688 99.910156 300.214844 92.351562 307.769531 L 46.367188 353.734375 C 44.078125 356.023438 44.078125 359.726562 46.367188 362.011719 C 47.507812 363.15625 49.007812 363.726562 50.507812 363.726562 C 52.003906 363.726562 53.503906 363.15625 54.648438 362.011719 L 100.632812 316.046875 C 105.980469 310.699219 113.085938 307.757812 120.648438 307.757812 L 239.273438 307.757812 C 254.652344 307.757812 269.105469 301.773438 279.980469 290.902344 L 377.769531 193.15625 C 380.054688 190.871094 380.054688 187.164062 377.765625 184.878906 Z M 271.699219 282.625 C 265.246094 289.078125 257.207031 293.363281 248.464844 295.132812 C 250.105469 293.816406 251.6875 292.410156 253.199219 290.902344 L 350.984375 193.15625 C 353.078125 191.0625 353.25 187.78125 351.507812 185.488281 C 356.207031 185.609375 360.84375 186.96875 364.875 189.488281 Z M 271.699219 282.625 " fill-opacity="1" fill-rule="nonzero"/></g></svg>